<?xml version="1.0" encoding="UTF-8"?>
<svg version="1.1" xmlns="http://www.w3.org/2000/svg" width="512" height="512">
<path d="M0 0 C1.55962376 1.50241268 3.10330623 3.02168261 4.625 4.5625 C5.18832031 5.10390625 5.75164062 5.6453125 6.33203125 6.203125 C17.98567308 18.37948955 20.80309367 35.086178 21 51.25 C21.01409912 52.11189941 21.02819824 52.97379883 21.04272461 53.86181641 C21.01425301 57.49681044 20.97850666 59.90979636 19.2265625 63.14453125 C17.625 64.5625 17.625 64.5625 15.625 64.5625 C15.625 67.5325 15.625 70.5025 15.625 73.5625 C16.945 74.2225 18.265 74.8825 19.625 75.5625 C20.5625 77.9375 20.5625 77.9375 20.625 80.5625 C19.3125 82.875 19.3125 82.875 17.625 84.5625 C16.965 84.5625 16.305 84.5625 15.625 84.5625 C15.68559066 85.98032145 15.77454123 87.39694466 15.875 88.8125 C15.92140625 89.60140625 15.9678125 90.3903125 16.015625 91.203125 C16.4342548 93.72756251 16.4342548 93.72756251 18.63867188 95.35742188 C21.15827243 98.15450056 21.09459542 99.49151512 21.015625 103.203125 C20.99628906 104.80800781 20.99628906 104.80800781 20.9765625 106.4453125 C20.92628906 108.11207031 20.92628906 108.11207031 20.875 109.8125 C20.85695313 110.93914062 20.83890625 112.06578125 20.8203125 113.2265625 C20.77320222 116.00606896 20.70743361 118.7838534 20.625 121.5625 C22.11932053 121.55250725 22.11932053 121.55250725 23.64382935 121.54231262 C33.08719744 121.48118108 42.53052476 121.43637478 51.97404671 121.40706348 C56.82767181 121.39148708 61.68113564 121.37039763 66.53466797 121.33618164 C71.22905918 121.30329917 75.92329644 121.28558684 80.61779404 121.27786827 C82.39812514 121.27237611 84.17844897 121.26165326 85.95871353 121.24530983 C105.93108023 121.0694484 123.57060412 123.83578819 138.51953125 138.39453125 C139.21433594 139.10996094 139.90914063 139.82539063 140.625 140.5625 C141.18574219 141.10261719 141.74648438 141.64273438 142.32421875 142.19921875 C164.72772713 165.54355688 163.32650351 213.80371197 162.71826172 243.68798828 C161.79035312 272.28797752 158.90223801 306.54934119 137.625 327.5625 C136.81289063 328.40748047 136.81289063 328.40748047 135.984375 329.26953125 C123.78806195 340.9422652 107.06172147 343.74130612 90.875 343.9375 C90.00472168 343.95159912 89.13444336 343.96569824 88.23779297 343.98022461 C87.42197754 343.97385986 86.60616211 343.96749512 85.765625 343.9609375 C85.03891602 343.95755371 84.31220703 343.95416992 83.56347656 343.95068359 C81.07845734 343.4530538 80.16119844 342.54287856 78.625 340.5625 C78.625 339.9025 78.625 339.2425 78.625 338.5625 C72.70027829 338.81569324 69.78038624 339.11030045 65.625 343.5625 C63 343.5625 63 343.5625 60.625 342.5625 C59.4765625 340.5 59.4765625 340.5 58.625 338.5625 C57.20717855 338.62309066 55.79055534 338.71204123 54.375 338.8125 C53.58609375 338.85890625 52.7971875 338.9053125 51.984375 338.953125 C49.46024953 339.37035275 49.46024953 339.37035275 47.84375 341.57617188 C44.98808537 344.13269558 43.54821963 344.03032081 39.765625 343.953125 C38.65058594 343.94023437 37.53554688 343.92734375 36.38671875 343.9140625 C34.64841797 343.86378906 34.64841797 343.86378906 32.875 343.8125 C31.70066406 343.79445313 30.52632813 343.77640625 29.31640625 343.7578125 C26.4184466 343.7106912 23.52213582 343.64491305 20.625 343.5625 C20.63499275 345.03469749 20.63499275 345.03469749 20.64518738 346.53663635 C20.70636006 355.84724698 20.75114457 365.15781611 20.78043652 374.46858311 C20.79600271 379.25379971 20.8170728 384.03885234 20.85131836 388.82397461 C20.88423814 393.45353209 20.90192077 398.08293319 20.90963173 402.7125988 C20.91511735 404.46698399 20.92582676 406.22136194 20.94219017 407.9756794 C21.12328571 428.22099258 18.58387651 446.26971725 3.79296875 461.45703125 C2.71982422 462.49923828 2.71982422 462.49923828 1.625 463.5625 C1.08488281 464.12324219 0.54476563 464.68398438 -0.01171875 465.26171875 C-18.85101494 483.3417486 -54.9032098 484.99281258 -79.375 485.5625 C-80.22384766 485.58296387 -81.07269531 485.60342773 -81.94726562 485.62451172 C-101.95218627 486.03928132 -121.34603426 484.61038894 -141.0625 481.1875 C-142.2081543 480.99067627 -143.35380859 480.79385254 -144.53417969 480.59106445 C-162.8142395 477.24043013 -179.47834981 470.54933788 -190.58007812 454.859375 C-198.29409119 443.05993709 -201.55693265 431.35076984 -201.48852539 417.24047852 C-201.48867142 416.43966354 -201.48881744 415.63884857 -201.4889679 414.81376648 C-201.48827605 412.18961801 -201.480518 409.56554219 -201.47265625 406.94140625 C-201.47078948 405.11295104 -201.4693668 403.28449532 -201.46836853 401.45603943 C-201.46456374 396.66059979 -201.45475097 391.86519078 -201.44366455 387.06976318 C-201.43340649 382.16955988 -201.42886152 377.26935159 -201.42382812 372.36914062 C-201.41312677 362.76691368 -201.39607498 353.16470939 -201.375 343.5625 C-202.36312683 343.56694122 -203.35125366 343.57138245 -204.36932373 343.57595825 C-213.72503883 343.61667012 -223.08073573 343.6465635 -232.43651962 343.66612434 C-237.24531524 343.67651913 -242.0540388 343.69059881 -246.86279297 343.71337891 C-251.51177927 343.73526193 -256.16069666 343.74710092 -260.80973053 343.75225449 C-262.57495456 343.75592269 -264.34017523 343.76308498 -266.10536957 343.77396011 C-287.68040017 343.90147941 -304.91581367 340.59325317 -321.125 325.25 C-331.26392166 314.69979933 -335.44773293 301.92047154 -338.0625 287.8125 C-338.38057617 286.16701172 -338.38057617 286.16701172 -338.70507812 284.48828125 C-341.5285064 269.79220346 -341.5285064 269.79220346 -341.625 262.8125 C-341.65078125 261.68328125 -341.6765625 260.5540625 -341.703125 259.390625 C-341.54070312 257.99070312 -341.54070312 257.99070312 -341.375 256.5625 C-340.385 255.9025 -339.395 255.2425 -338.375 254.5625 C-338.01202064 252.58502878 -338.01202064 252.58502878 -338.1875 250.4375 C-338.249375 249.15875 -338.31125 247.88 -338.375 246.5625 C-339.014375 246.376875 -339.65375 246.19125 -340.3125 246 C-342.375 244.5625 -342.375 244.5625 -343.3125 241.125 C-343.375 237.5625 -343.375 237.5625 -342.0625 235.625 C-340.375 234.5625 -340.375 234.5625 -338.375 234.5625 C-338.375 231.5925 -338.375 228.6225 -338.375 225.5625 C-339.695 224.9025 -341.015 224.2425 -342.375 223.5625 C-344.17140684 217.19177265 -342.94210006 210.66493309 -342.25 204.1875 C-342.11311768 202.90415771 -341.97623535 201.62081543 -341.83520508 200.29858398 C-339.49257734 179.66127063 -336.90384651 157.51029967 -322.375 141.5625 C-321.44880859 140.51642578 -321.44880859 140.51642578 -320.50390625 139.44921875 C-310.38156325 128.63440159 -296.15781818 122.2487934 -281.37573624 121.45516205 C-275.70573188 121.28459001 -270.03498806 121.33279114 -264.36328125 121.3671875 C-262.54054419 121.37092462 -260.71780511 121.37376828 -258.89506531 121.37576294 C-254.13252062 121.38334439 -249.37010083 121.40294478 -244.60760498 121.4251709 C-239.73386321 121.44574853 -234.86010096 121.45478997 -229.98632812 121.46484375 C-220.44916433 121.48619663 -210.91209261 121.52026509 -201.375 121.5625 C-201.38499275 120.06817947 -201.38499275 120.06817947 -201.39518738 118.54367065 C-201.45631892 109.10030256 -201.50112522 99.65697524 -201.53043652 90.21345329 C-201.54601292 85.35982819 -201.56710237 80.50636436 -201.60131836 75.65283203 C-201.63420083 70.95844082 -201.65191316 66.26420356 -201.65963173 61.56970596 C-201.66512389 59.78937486 -201.67584674 58.00905103 -201.69219017 56.22878647 C-201.85566671 37.66295621 -199.38077722 20.49466375 -187.28515625 5.49609375 C-168.50056497 -13.51898331 -142.84477912 -16.6104602 -117.375 -19.4375 C-116.19421875 -19.57027344 -115.0134375 -19.70304687 -113.796875 -19.83984375 C-80.0851982 -22.87057331 -27.06473797 -23.75233721 0 0 Z " fill="#EFBF20" transform="translate(346.375,23.4375)"/>
<path d="M0 0 C1.55962376 1.50241268 3.10330623 3.02168261 4.625 4.5625 C5.18832031 5.10390625 5.75164062 5.6453125 6.33203125 6.203125 C17.98567308 18.37948955 20.80309367 35.086178 21 51.25 C21.01409912 52.11189941 21.02819824 52.97379883 21.04272461 53.86181641 C21.01425301 57.49681044 20.97850666 59.90979636 19.2265625 63.14453125 C17.625 64.5625 17.625 64.5625 15.625 64.5625 C15.625 67.5325 15.625 70.5025 15.625 73.5625 C16.945 74.2225 18.265 74.8825 19.625 75.5625 C20.5625 77.9375 20.5625 77.9375 20.625 80.5625 C19.3125 82.875 19.3125 82.875 17.625 84.5625 C16.965 84.5625 16.305 84.5625 15.625 84.5625 C15.625 87.8625 15.625 91.1625 15.625 94.5625 C13.975 94.8925 12.325 95.2225 10.625 95.5625 C10.61913376 96.65085144 10.61326752 97.73920288 10.60722351 98.86053467 C10.54980729 109.15823985 10.47694812 119.45573768 10.38928509 129.75323105 C10.34471318 135.04624637 10.30542849 140.33918705 10.27856445 145.63232422 C10.25239941 150.7482975 10.21190508 155.8639815 10.16181374 160.97977448 C10.14523382 162.92358021 10.13366465 164.86743588 10.12738609 166.81130219 C10.06274083 184.9994488 8.2061473 200.4961785 -4.8671875 214.23828125 C-19.56095301 227.85633495 -35.60513039 228.13499499 -54.57565308 228.0483551 C-58.50388195 228.03095598 -62.4313838 228.0386758 -66.35961914 228.0526123 C-75.40463302 228.0814451 -84.44951529 228.07095076 -93.49455261 228.05991364 C-102.45848599 228.0494201 -111.42206625 228.05476122 -120.38595581 228.08656311 C-124.23741082 228.09361256 -128.08828793 228.07703794 -131.93969727 228.05944824 C-152.13384601 228.06177573 -167.95124839 230.86627418 -183.15625 245.27734375 C-195.39309513 257.88043248 -199.79218343 272.60448475 -199.88671875 289.88671875 C-199.90466995 291.11413284 -199.92262115 292.34154694 -199.94111633 293.6061554 C-199.99485866 297.48740304 -200.02899958 301.36853027 -200.0625 305.25 C-200.09570485 307.89780308 -200.13019739 310.54559035 -200.16601562 313.19335938 C-200.25056429 319.64963149 -200.31906541 326.10591992 -200.375 332.5625 C-211.4764877 332.6789093 -222.5778276 332.76747505 -233.67980385 332.82156086 C-238.83623609 332.84753373 -243.99224742 332.88270407 -249.1484375 332.93969727 C-254.13462776 332.99445964 -259.12041596 333.02401283 -264.106884 333.03688622 C-265.99889826 333.04604738 -267.89089323 333.06393463 -269.78273392 333.09115028 C-285.44914005 333.30733719 -298.33604003 331.63641308 -310.375 320.5625 C-310.98730469 320.06363281 -311.59960938 319.56476563 -312.23046875 319.05078125 C-322.44328597 310.10047565 -325.70551074 296.30016447 -328.375 283.5625 C-328.67857422 282.23992187 -328.67857422 282.23992187 -328.98828125 280.890625 C-330.67669182 273.20900133 -331.46486632 265.36641221 -332.375 257.5625 C-334.025 256.9025 -335.675 256.2425 -337.375 255.5625 C-337.40078125 254.93601562 -337.4265625 254.30953125 -337.453125 253.6640625 C-337.53820312 252.43816406 -337.53820312 252.43816406 -337.625 251.1875 C-337.67140625 250.37539063 -337.7178125 249.56328125 -337.765625 248.7265625 C-337.96671875 248.01242187 -338.1678125 247.29828125 -338.375 246.5625 C-339.68653467 245.85391054 -341.02080224 245.18569392 -342.375 244.5625 C-343.3125 241.125 -343.3125 241.125 -343.375 237.5625 C-342.0625 235.625 -342.0625 235.625 -340.375 234.5625 C-339.715 234.5625 -339.055 234.5625 -338.375 234.5625 C-338.375 231.5925 -338.375 228.6225 -338.375 225.5625 C-339.695 224.9025 -341.015 224.2425 -342.375 223.5625 C-344.17140684 217.19177265 -342.94210006 210.66493309 -342.25 204.1875 C-342.11311768 202.90415771 -341.97623535 201.62081543 -341.83520508 200.29858398 C-339.49257734 179.66127063 -336.90384651 157.51029967 -322.375 141.5625 C-321.44880859 140.51642578 -321.44880859 140.51642578 -320.50390625 139.44921875 C-310.38156325 128.63440159 -296.15781818 122.2487934 -281.37573624 121.45516205 C-275.70573188 121.28459001 -270.03498806 121.33279114 -264.36328125 121.3671875 C-262.54054419 121.37092462 -260.71780511 121.37376828 -258.89506531 121.37576294 C-254.13252062 121.38334439 -249.37010083 121.40294478 -244.60760498 121.4251709 C-239.73386321 121.44574853 -234.86010096 121.45478997 -229.98632812 121.46484375 C-220.44916433 121.48619663 -210.91209261 121.52026509 -201.375 121.5625 C-201.38499275 120.06817947 -201.38499275 120.06817947 -201.39518738 118.54367065 C-201.45631892 109.10030256 -201.50112522 99.65697524 -201.53043652 90.21345329 C-201.54601292 85.35982819 -201.56710237 80.50636436 -201.60131836 75.65283203 C-201.63420083 70.95844082 -201.65191316 66.26420356 -201.65963173 61.56970596 C-201.66512389 59.78937486 -201.67584674 58.00905103 -201.69219017 56.22878647 C-201.85566671 37.66295621 -199.38077722 20.49466375 -187.28515625 5.49609375 C-168.50056497 -13.51898331 -142.84477912 -16.6104602 -117.375 -19.4375 C-116.19421875 -19.57027344 -115.0134375 -19.70304687 -113.796875 -19.83984375 C-80.0851982 -22.87057331 -27.06473797 -23.75233721 0 0 Z " fill="#71C0E7" transform="translate(346.375,23.4375)"/>
<path d="M0 0 C1.875 1.1875 1.875 1.1875 2.875 3.1875 C2.95971364 5.00091842 2.98221083 6.81744161 2.97265625 8.6328125 C2.96943359 9.70917969 2.96621094 10.78554687 2.96289062 11.89453125 C2.95451172 13.02246094 2.94613281 14.15039062 2.9375 15.3125 C2.93298828 16.44816406 2.92847656 17.58382812 2.92382812 18.75390625 C2.91201615 21.56515638 2.89554507 24.3763023 2.875 27.1875 C3.87121368 27.18083817 4.86742737 27.17417633 5.89382935 27.16731262 C15.33719744 27.10618108 24.78052476 27.06137478 34.22404671 27.03206348 C39.07767181 27.01648708 43.93113564 26.99539763 48.78466797 26.96118164 C53.47905918 26.92829917 58.17329644 26.91058684 62.86779404 26.90286827 C64.64812514 26.89737611 66.42844897 26.88665326 68.20871353 26.87030983 C88.18108023 26.6944484 105.82060412 29.46078819 120.76953125 44.01953125 C121.46433594 44.73496094 122.15914063 45.45039063 122.875 46.1875 C123.43574219 46.72761719 123.99648438 47.26773438 124.57421875 47.82421875 C146.97772713 71.16855688 145.57650351 119.42871197 144.96826172 149.31298828 C144.04035312 177.91297752 141.15223801 212.17434119 119.875 233.1875 C119.33359375 233.75082031 118.7921875 234.31414062 118.234375 234.89453125 C106.03806195 246.5672652 89.31172147 249.36630612 73.125 249.5625 C72.25472168 249.57659912 71.38444336 249.59069824 70.48779297 249.60522461 C69.67197754 249.59885986 68.85616211 249.59249512 68.015625 249.5859375 C67.28891602 249.58255371 66.56220703 249.57916992 65.81347656 249.57568359 C63.31649425 249.07565817 62.41908981 248.17931623 60.875 246.1875 C60.5 243.6875 60.5 243.6875 60.875 241.1875 C62.53193659 238.95403385 63.4324833 238.26375432 66.19995117 237.78686523 C67.09689697 237.77341064 67.99384277 237.75995605 68.91796875 237.74609375 C70.40586914 237.70645508 70.40586914 237.70645508 71.92382812 237.66601562 C72.95958984 237.65248047 73.99535156 237.63894531 75.0625 237.625 C89.56169504 237.3767576 102.79274 234.2390263 113.8125 224.125 C125.02017569 211.79239032 127.93782782 195.50684623 130.5625 179.625 C130.74184082 178.54762573 130.74184082 178.54762573 130.92480469 177.44848633 C133.00922321 163.82273306 133.11211218 150.00415388 133.125 136.25 C133.12633942 135.39776855 133.12767883 134.54553711 133.12905884 133.66748047 C133.12430343 119.64919323 132.30015364 106.01765942 129.875 92.1875 C129.7522168 91.44161621 129.62943359 90.69573242 129.50292969 89.92724609 C126.85810164 74.00363262 121.895413 58.62627939 108.875 48.1875 C99.782074 42.25557638 90.7403051 38.73515114 79.86694336 38.75512695 C79.01706848 38.7449353 78.1671936 38.73474365 77.29156494 38.72424316 C74.5159222 38.69433785 71.7406258 38.68488192 68.96484375 38.67578125 C67.02713393 38.65891787 65.08943493 38.64076541 63.15174866 38.62138367 C58.07690821 38.57405772 53.00211168 38.54413601 47.92712402 38.51794434 C42.73843719 38.48805067 37.54990143 38.44155073 32.36132812 38.39648438 C22.19929806 38.31064945 12.03723674 38.24321638 1.875 38.1875 C1.88388245 38.83070694 1.89276489 39.47391388 1.9019165 40.13661194 C1.99122156 46.90258794 2.05107505 53.66839339 2.09472656 60.43481445 C2.11469631 62.95148533 2.14188171 65.46811069 2.17675781 67.98461914 C2.47716384 90.23675398 1.44397704 108.85811468 -14.64453125 125.8359375 C-27.49657712 138.02008177 -41.442503 143.50948851 -58.95019531 143.44287109 C-60.11227005 143.44649155 -61.27434479 143.450112 -62.47163391 143.45384216 C-64.98533597 143.46071459 -67.49905288 143.46324565 -70.01276398 143.46189499 C-73.99896095 143.46092636 -77.98498334 143.47349078 -81.97113037 143.49087524 C-93.30152783 143.5377045 -104.63191228 143.56182543 -115.96240234 143.56835938 C-122.23113395 143.57212674 -128.49966675 143.59028795 -134.76831317 143.62345374 C-138.0763578 143.64024687 -141.38396331 143.64718976 -144.69205475 143.64051437 C-148.38908028 143.63340436 -152.08527903 143.65080845 -155.78222656 143.67333984 C-156.85795425 143.66516739 -157.93368195 143.65699493 -159.04200745 143.64857483 C-172.27981241 143.79120126 -183.76233441 148.59129487 -193.6015625 157.40625 C-201.83569338 165.88823098 -207.21853781 176.44684152 -207.27890015 188.33808899 C-207.28750061 189.60086166 -207.29610107 190.86363434 -207.30496216 192.16467285 C-207.30939719 193.56201131 -207.31369557 194.9593502 -207.31787109 196.35668945 C-207.3257764 197.83046154 -207.33404562 199.30423171 -207.34265137 200.77799988 C-207.36883999 205.61890829 -207.38418412 210.45982517 -207.3984375 215.30078125 C-207.40380004 216.97205294 -207.40917755 218.64332458 -207.41456985 220.31459618 C-207.4362013 227.27434319 -207.45493207 234.23408793 -207.46619225 241.19386005 C-207.48239036 251.13807554 -207.51546383 261.08189775 -207.57259309 271.02596503 C-207.61145908 278.03259144 -207.630845 285.03911345 -207.63611281 292.04584473 C-207.63974594 296.2220856 -207.65154605 300.39790675 -207.68421555 304.57402992 C-207.71458798 308.51322446 -207.72050601 312.45175182 -207.70883179 316.39103889 C-207.70861341 317.82478084 -207.7167195 319.25855638 -207.73448563 320.69218826 C-207.89824521 334.68643118 -205.18592108 347.86288542 -195.125 358.1875 C-194.444375 358.89519531 -193.76375 359.60289062 -193.0625 360.33203125 C-175.10668331 377.61450482 -142.54150486 379.32531668 -118.76953125 379.35546875 C-117.82422043 379.35879715 -116.87890961 379.36212555 -115.904953 379.36555481 C-113.91930623 379.37057798 -111.93365116 379.37296458 -109.94799805 379.37280273 C-106.96193019 379.37498217 -103.97623685 379.39316859 -100.99023438 379.41210938 C-89.85114144 379.44566469 -79.13134877 378.9544943 -68.125 377.1875 C-66.48301636 376.93794556 -66.48301636 376.93794556 -64.80786133 376.68334961 C-48.49499375 374.07637418 -31.70149394 370.74005967 -20.09375 357.94921875 C-12.62464535 347.47172473 -9.01563021 337.59473991 -8.91967773 324.70361328 C-8.90977814 323.87368362 -8.89987854 323.04375397 -8.88967896 322.18867493 C-8.85824188 319.46174921 -8.83337732 316.73480611 -8.80859375 314.0078125 C-8.78800884 312.11066246 -8.76701197 310.21351685 -8.74562073 308.31637573 C-8.69055881 303.33520098 -8.6410798 298.35398593 -8.59277344 293.3727417 C-8.54244213 288.28491653 -8.4868169 283.19714952 -8.43164062 278.109375 C-8.32425341 268.13546641 -8.22276565 258.16150722 -8.125 248.1875 C-10.05392593 248.19416183 -10.05392593 248.19416183 -12.02182007 248.20095825 C-24.1178581 248.24143375 -36.21388247 248.27145038 -48.30997276 248.29112434 C-54.52926828 248.30157879 -60.74850929 248.31576821 -66.96777344 248.33837891 C-72.96535404 248.36004815 -78.9628821 248.3720561 -84.96049881 248.37725449 C-87.25312757 248.38096091 -89.54575333 248.38819821 -91.83835983 248.39896011 C-95.03992771 248.41339636 -98.24127612 248.41548125 -101.44287109 248.41455078 C-102.39880661 248.42174133 -103.35474213 248.42893188 -104.33964539 248.43634033 C-105.64375618 248.43221634 -105.64375618 248.43221634 -106.97421265 248.42800903 C-107.73192648 248.42985262 -108.48964031 248.43169621 -109.27031517 248.43359566 C-111.125 248.1875 -111.125 248.1875 -113.125 246.1875 C-113.47944731 243.42281101 -113.60252643 241.85507353 -111.95419312 239.55073261 C-109.41805868 237.66064176 -107.69290816 237.81275597 -104.54541016 237.8132782 C-102.8039975 237.80275673 -102.8039975 237.80275673 -101.02740479 237.79202271 C-99.75250183 237.79966644 -98.47759888 237.80731018 -97.1640625 237.81518555 C-95.80889608 237.81275778 -94.45373145 237.8090386 -93.09857178 237.80412292 C-89.4167518 237.79470813 -85.73519739 237.80414413 -82.05339813 237.81745505 C-78.20307875 237.82876113 -74.35277261 237.8246627 -70.50244141 237.82270813 C-64.03608861 237.82182488 -57.56984059 237.83291185 -51.10351562 237.85131836 C-43.62412328 237.87248648 -36.14488445 237.87599605 -28.66546822 237.8697564 C-21.47493586 237.86406452 -14.28445765 237.86970632 -7.09393311 237.88092995 C-4.03178915 237.88557828 -0.96967827 237.88644878 2.09246826 237.8843441 C5.69742889 237.88246241 9.30223296 237.8905558 12.9071579 237.9064045 C14.86389683 237.91268089 16.82065948 237.90913686 18.77740479 237.90533447 C19.93834656 237.91241928 21.09928833 237.91950409 22.29541016 237.92680359 C23.30640778 237.92885646 24.3174054 237.93090933 25.35903931 237.93302441 C27.875 238.1875 27.875 238.1875 30.875 240.1875 C31.8125 242.5625 31.8125 242.5625 31.875 245.1875 C29.77137142 247.94906394 28.59102751 249.06922192 25.12597656 249.64160156 C24.09956055 249.6206543 23.07314453 249.59970703 22.015625 249.578125 C20.34306641 249.55878906 20.34306641 249.55878906 18.63671875 249.5390625 C16.89841797 249.48878906 16.89841797 249.48878906 15.125 249.4375 C13.95066406 249.41945313 12.77632813 249.40140625 11.56640625 249.3828125 C8.6684466 249.3356912 5.77213582 249.26991305 2.875 249.1875 C2.88499275 250.65969749 2.88499275 250.65969749 2.89518738 252.16163635 C2.95636006 261.47224698 3.00114457 270.78281611 3.03043652 280.09358311 C3.04600271 284.87879971 3.0670728 289.66385234 3.10131836 294.44897461 C3.13423814 299.07853209 3.15192077 303.70793319 3.15963173 308.3375988 C3.16511735 310.09198399 3.17582676 311.84636194 3.19219017 313.6006794 C3.37328571 333.84599258 0.83387651 351.89471725 -13.95703125 367.08203125 C-15.03017578 368.12423828 -15.03017578 368.12423828 -16.125 369.1875 C-16.66511719 369.74824219 -17.20523437 370.30898438 -17.76171875 370.88671875 C-36.60101494 388.9667486 -72.6532098 390.61781258 -97.125 391.1875 C-97.97384766 391.20796387 -98.82269531 391.22842773 -99.69726562 391.24951172 C-119.70218627 391.66428132 -139.09603426 390.23538894 -158.8125 386.8125 C-159.9581543 386.61567627 -161.10380859 386.41885254 -162.28417969 386.21606445 C-180.5642395 382.86543013 -197.22834981 376.17433788 -208.33007812 360.484375 C-216.04409119 348.68493709 -219.30693265 336.97576984 -219.23852539 322.86547852 C-219.23867142 322.06466354 -219.23881744 321.26384857 -219.2389679 320.43876648 C-219.23827605 317.81461801 -219.230518 315.19054219 -219.22265625 312.56640625 C-219.22078948 310.73795104 -219.2193668 308.90949532 -219.21836853 307.08103943 C-219.21456374 302.28559979 -219.20475097 297.49019078 -219.19366455 292.69476318 C-219.18340649 287.79455988 -219.17886152 282.89435159 -219.17382812 277.99414062 C-219.16312677 268.39191368 -219.14607498 258.78970939 -219.125 249.1875 C-220.60719025 249.19416183 -220.60719025 249.19416183 -222.11932373 249.20095825 C-231.47503883 249.24167012 -240.83073573 249.2715635 -250.18651962 249.29112434 C-254.99531524 249.30151913 -259.8040388 249.31559881 -264.61279297 249.33837891 C-269.26177927 249.36026193 -273.91069666 249.37210092 -278.55973053 249.37725449 C-280.32495456 249.38092269 -282.09017523 249.38808498 -283.85536957 249.39896011 C-305.43040017 249.52647941 -322.66581367 246.21825317 -338.875 230.875 C-349.01392166 220.32479933 -353.19773293 207.54547154 -355.8125 193.4375 C-356.02455078 192.34050781 -356.23660156 191.24351562 -356.45507812 190.11328125 C-359.26093048 175.50868698 -359.26093048 175.50868698 -359.1875 168.3125 C-359.17847656 167.16007813 -359.16945313 166.00765625 -359.16015625 164.8203125 C-359.14855469 163.95148438 -359.13695312 163.08265625 -359.125 162.1875 C-355.453125 160.125 -355.453125 160.125 -352.5 160.6875 C-349.25006376 162.74009131 -349.12465689 164.52065511 -348.125 168.1875 C-347.7831501 170.40952433 -347.49524692 172.64025003 -347.25 174.875 C-344.73398915 195.36843956 -340.88286952 214.37162359 -324.5546875 228.36328125 C-315.98362116 234.79847093 -306.90547522 237.47740766 -296.34399414 237.50634766 C-295.49441132 237.51639328 -294.64482849 237.5264389 -293.76950073 237.53678894 C-290.98305896 237.56748803 -288.19671269 237.58461895 -285.41015625 237.6015625 C-283.46959113 237.62028484 -281.52903405 237.63985904 -279.58848572 237.6602478 C-274.49718991 237.71146237 -269.40586773 237.75114514 -264.31445312 237.78839111 C-259.11256445 237.8284978 -253.91078443 237.87955969 -248.70898438 237.9296875 C-238.51439937 238.02632034 -228.31975285 238.11076546 -218.125 238.1875 C-218.13388245 237.5170163 -218.14276489 236.84653259 -218.1519165 236.1557312 C-218.24109834 229.11416232 -218.30102547 222.07275645 -218.34472656 215.03076172 C-218.36471814 212.41025261 -218.39192055 209.78978739 -218.42675781 207.16943359 C-218.71951192 184.56709445 -217.58258324 167.64073742 -201.46484375 150.50390625 C-190.24971845 139.40111943 -176.51934307 132.99316837 -160.6809082 132.93074036 C-159.61114746 132.93643539 -158.54138672 132.94213043 -157.43920898 132.94799805 C-156.2917067 132.94598389 -155.14420441 132.94396973 -153.96192932 132.94189453 C-151.47933124 132.93835978 -148.99672413 132.93910281 -146.51412773 132.94367027 C-142.5732838 132.94928689 -138.63273166 132.94006467 -134.69190979 132.9264679 C-123.49015605 132.88889943 -112.28848399 132.87048683 -101.08666992 132.88208008 C-94.88929902 132.88833562 -88.69221902 132.87651842 -82.49491936 132.84563476 C-79.22636961 132.83017374 -75.95851464 132.82670008 -72.6899395 132.84021568 C-53.85107809 132.91473997 -37.78181861 132.55037796 -23.125 119.1875 C-12.69696137 108.74157451 -8.98638453 95.99263702 -8.96728516 81.56762695 C-8.96220444 80.72300903 -8.95712372 79.87839111 -8.95188904 79.00817871 C-8.94122815 77.1830529 -8.93259136 75.35791436 -8.92576981 73.53277016 C-8.91393871 70.64557267 -8.89447887 67.75852192 -8.87265015 64.87138367 C-8.81114823 56.66585128 -8.75687182 48.4603383 -8.72363281 40.25463867 C-8.70273063 35.22906017 -8.66747485 30.20375682 -8.62287521 25.17833519 C-8.60869196 23.26337092 -8.59998755 21.34835806 -8.59682083 19.43334389 C-8.5919316 16.76166386 -8.56882952 14.09072061 -8.54150391 11.41918945 C-8.54451004 10.6258873 -8.54751617 9.83258514 -8.5506134 9.01524353 C-8.46940805 3.68975029 -8.46940805 3.68975029 -6.78646851 1.23551941 C-4.28222474 -0.34410492 -2.83646011 -1.08452887 0 0 Z " fill="#030301" transform="translate(364.125,117.8125)"/>
<path d="M0 0 C1.55962376 1.50241268 3.10330623 3.02168261 4.625 4.5625 C5.18832031 5.10390625 5.75164062 5.6453125 6.33203125 6.203125 C17.98567308 18.37948955 20.80309367 35.086178 21 51.25 C21.01409912 52.11189941 21.02819824 52.97379883 21.04272461 53.86181641 C20.99515449 59.93513559 20.99515449 59.93513559 19.1015625 63.14453125 C18.61429687 63.61246094 18.12703125 64.08039063 17.625 64.5625 C11.875 63.8125 11.875 63.8125 9.625 61.5625 C9.36962891 59.12329102 9.36962891 59.12329102 9.3515625 56.06640625 C9.320625 54.39094727 9.320625 54.39094727 9.2890625 52.68164062 C9.26340772 50.34577288 9.24495105 48.00981281 9.234375 45.67382812 C8.95702294 32.18373224 4.22093462 20.57426092 -4.75 10.4375 C-17.05706559 -0.97073496 -33.35403161 -3.92582907 -49.375 -6.4375 C-50.18904297 -6.56882324 -51.00308594 -6.70014648 -51.84179688 -6.83544922 C-85.11055888 -11.87381526 -139.18071143 -14.6223182 -168.375 4.5625 C-169.12394531 5.01753906 -169.87289062 5.47257812 -170.64453125 5.94140625 C-175.66930597 9.35688344 -178.96948306 13.41086894 -182.25 18.4375 C-182.61939697 19.00202881 -182.98879395 19.56655762 -183.36938477 20.14819336 C-187.96437417 27.59772603 -189.82316834 34.96164059 -189.80737305 43.66235352 C-189.8175647 44.52198196 -189.82775635 45.38161041 -189.83825684 46.26728821 C-189.86816736 49.07539574 -189.87761891 51.88316096 -189.88671875 54.69140625 C-189.90358174 56.65153619 -189.92173414 58.61165543 -189.94111633 60.57176208 C-189.98844651 65.70578668 -190.01836551 70.83976784 -190.04455566 75.97393799 C-190.07444717 81.22294691 -190.12094786 86.47180645 -190.16601562 91.72070312 C-190.25185539 102.00122367 -190.31928634 112.28177511 -190.375 122.5625 C-189.08904938 122.55805878 -187.80309875 122.55361755 -186.47817993 122.54904175 C-174.3821419 122.50856625 -162.28611753 122.47854962 -150.19002724 122.45887566 C-143.97073172 122.44842121 -137.75149071 122.43423179 -131.53222656 122.41162109 C-125.53464596 122.38995185 -119.5371179 122.3779439 -113.53950119 122.37274551 C-111.24687243 122.36903909 -108.95424667 122.36180179 -106.66164017 122.35103989 C-103.46007229 122.33660364 -100.25872388 122.33451875 -97.05712891 122.33544922 C-96.10119339 122.32825867 -95.14525787 122.32106812 -94.16035461 122.31365967 C-92.85624382 122.31778366 -92.85624382 122.31778366 -91.52578735 122.32199097 C-90.76807352 122.32014738 -90.01035969 122.31830379 -89.22968483 122.31640434 C-87.375 122.5625 -87.375 122.5625 -85.375 124.5625 C-85.03047734 127.24977673 -84.9426521 128.87715705 -86.40764809 131.19941807 C-89.44718147 133.30536211 -92.59760535 132.97021382 -96.16513062 132.93431091 C-96.9670649 132.93813548 -97.76899919 132.94196004 -98.59523451 132.9459005 C-101.29201772 132.95521233 -103.9882911 132.94317699 -106.68505859 132.93139648 C-108.61512465 132.93386362 -110.54518937 132.93770115 -112.47525024 132.94281006 C-116.63809026 132.95116186 -120.80079356 132.95032844 -124.96363449 132.94262505 C-131.55407803 132.93105355 -138.14434537 132.9431973 -144.73477173 132.95924377 C-161.11381963 132.99546668 -177.49286394 133.00167433 -193.87194824 132.99914551 C-206.58313856 132.99743185 -219.29418517 133.00464443 -232.00533545 133.03912407 C-238.54747315 133.0558693 -245.08926002 133.05416384 -251.63139606 133.03830135 C-255.71832661 133.03247632 -259.80509341 133.04329581 -263.89199448 133.05854797 C-265.77645288 133.0622534 -267.66093949 133.05922689 -269.54537201 133.04867744 C-286.47384821 132.96028668 -298.90184823 135.55071825 -312.0625 146.875 C-328.07998739 165.48991778 -330.07662544 190.97834229 -331.69213867 214.69580078 C-331.75506104 215.55544434 -331.8179834 216.41508789 -331.8828125 217.30078125 C-331.93066895 218.05399658 -331.97852539 218.80721191 -332.02783203 219.58325195 C-332.375 221.5625 -332.375 221.5625 -334.375 224.5625 C-337.5 225.25 -337.5 225.25 -340.375 225.5625 C-342.36299607 223.35160249 -343.32977056 222.07369786 -343.59545898 219.07080078 C-343.52141846 218.14251465 -343.44737793 217.21422852 -343.37109375 216.2578125 C-343.29189697 215.20996582 -343.2127002 214.16211914 -343.13110352 213.08251953 C-343.02596436 211.96216309 -342.9208252 210.84180664 -342.8125 209.6875 C-342.71316162 208.53233887 -342.61382324 207.37717773 -342.51147461 206.18701172 C-341.55712649 195.94128764 -339.95999899 185.87658292 -337.84667969 175.80957031 C-337.44269317 173.88498859 -337.06621121 171.95466873 -336.6953125 170.0234375 C-333.95745334 157.21296069 -327.73314353 146.65933411 -318.375 137.5625 C-317.74980469 136.91667969 -317.12460937 136.27085937 -316.48046875 135.60546875 C-302.26608044 121.86988089 -282.64285071 121.09902902 -264.0703125 121.26953125 C-262.25186517 121.27514099 -260.43341324 121.27940456 -258.61495972 121.28239441 C-253.87704488 121.29373485 -249.13941514 121.32310621 -244.40161133 121.35650635 C-239.54772801 121.38744296 -234.69379768 121.40094967 -229.83984375 121.41601562 C-220.35143867 121.44798857 -210.86324323 121.49905065 -201.375 121.5625 C-201.38499275 120.06817947 -201.38499275 120.06817947 -201.39518738 118.54367065 C-201.45631892 109.10030256 -201.50112522 99.65697524 -201.53043652 90.21345329 C-201.54601292 85.35982819 -201.56710237 80.50636436 -201.60131836 75.65283203 C-201.63420083 70.95844082 -201.65191316 66.26420356 -201.65963173 61.56970596 C-201.66512389 59.78937486 -201.67584674 58.00905103 -201.69219017 56.22878647 C-201.85566671 37.66295621 -199.38077722 20.49466375 -187.28515625 5.49609375 C-168.50056497 -13.51898331 -142.84477912 -16.6104602 -117.375 -19.4375 C-116.19421875 -19.57027344 -115.0134375 -19.70304687 -113.796875 -19.83984375 C-80.0851982 -22.87057331 -27.06473797 -23.75233721 0 0 Z " fill="#010303" transform="translate(346.375,23.4375)"/>
<path d="M0 0 C8.88085883 3.32141269 14.72504287 8.32187275 19.0657959 16.74926758 C21.85014423 23.14383737 21.56107492 29.60756311 21.51757812 36.46484375 C21.52300744 37.90968529 21.53013463 39.35452128 21.53881836 40.79934692 C21.55695871 44.70026002 21.55002303 48.60074706 21.53730202 52.50166702 C21.52712586 56.59739522 21.53658045 60.69308862 21.54284668 64.78881836 C21.55010972 71.66494245 21.54057081 78.54089429 21.52148438 85.41699219 C21.49971813 93.34978127 21.50677046 101.28215904 21.52879 109.21493816 C21.54698245 116.04411414 21.54948359 122.8731668 21.53903532 129.7023592 C21.53282145 133.77314807 21.53190635 137.84374404 21.54518127 141.91452026 C21.55679542 145.74296047 21.5486137 149.57087394 21.52560425 153.39925766 C21.52034665 154.79840091 21.52178004 156.19758903 21.53065491 157.59671402 C21.59470881 168.72689039 19.58182639 177.57574846 12 186 C4.12627101 193.10179477 -4.24323185 194.44585323 -14.50561523 194.41650391 C-16.19743423 194.42938194 -16.19743423 194.42938194 -17.9234314 194.44252014 C-21.63521634 194.46752165 -25.34673239 194.47195496 -29.05859375 194.4765625 C-31.64877633 194.49088155 -34.23895132 194.50664018 -36.82911682 194.52377319 C-42.94508732 194.56132044 -49.06098482 194.58647708 -55.17703921 194.60489786 C-66.76889253 194.6403181 -78.36060168 194.70433919 -89.95231819 194.76975632 C-93.75055547 194.78877194 -97.54876173 194.80055633 -101.34703064 194.81118774 C-103.68635116 194.82140529 -106.02567106 194.83176365 -108.36499023 194.84228516 C-109.93865608 194.84384865 -109.93865608 194.84384865 -111.54411316 194.84544373 C-133.57017453 194.96735546 -152.03678755 202.89646295 -168.09375 217.96484375 C-179.39393653 230.11254427 -185.64501211 245.14476033 -188.01293945 261.35253906 C-188.5389025 264.88866081 -188.9820117 266.97301756 -191 270 C-194 270.3125 -194 270.3125 -197 270 C-199 268 -199 268 -199.15234375 264.83203125 C-198.23292394 241.5645414 -187.39125726 221.70502145 -170.75 205.8125 C-153.66451875 190.77918549 -133.9510468 183.84701546 -111.50024414 183.8581543 C-109.79160439 183.85294266 -109.79160439 183.85294266 -108.04844666 183.84762573 C-105.58273363 183.84029243 -103.11701411 183.83493417 -100.6512928 183.83133507 C-96.74610717 183.82414687 -92.84104553 183.80846381 -88.93589783 183.78999329 C-87.5950213 183.78365719 -86.25414472 183.77733155 -84.91326809 183.77101612 C-84.24209387 183.76785031 -83.57091964 183.7646845 -82.87940681 183.76142275 C-73.79763107 183.71945728 -64.71589956 183.68636582 -55.6340332 183.67407227 C-48.83718041 183.66477774 -42.04065326 183.63465637 -35.24392509 183.59275246 C-32.65764186 183.58045007 -30.07131404 183.57531979 -27.48500252 183.57755089 C-23.86604222 183.57990538 -20.24798814 183.55772583 -16.62915039 183.5300293 C-15.56552277 183.53663071 -14.50189514 183.54323212 -13.40603638 183.55003357 C-6.46677883 183.46297332 -0.66072372 182.48414302 4.5204916 177.55285168 C8.66258293 172.80422593 10.24754626 169.32658711 10.26742554 163.0680542 C10.27595551 161.85406448 10.28448547 160.64007477 10.29327393 159.38929749 C10.29257492 158.04696642 10.29165187 156.70463546 10.29052734 155.36230469 C10.29651296 153.94613796 10.30331858 152.52997449 10.31088257 151.11381531 C10.3285497 147.26857888 10.33323833 143.42343147 10.33451414 139.57815838 C10.33593626 137.17396559 10.34020709 134.76979539 10.34550858 132.36560822 C10.36401346 123.97272812 10.3721789 115.57991154 10.37060547 107.18701172 C10.36940497 99.37305174 10.39048796 91.5593684 10.4220928 83.74547839 C10.44828245 77.0302408 10.45897159 70.31509337 10.45769465 63.59980512 C10.45718567 59.59210059 10.462833 55.58464173 10.48405075 51.57698822 C10.50347787 47.80447073 10.5035275 44.03243204 10.48901749 40.25989723 C10.48693357 38.87967285 10.49160542 37.49941816 10.5037384 36.11924553 C10.56777861 28.32606165 10.35480829 22.59622225 6 16 C2.52340683 12.75502305 -0.84982782 10.9735752 -5.375 9.5625 C-6.57125 9.046875 -7.7675 8.53125 -9 8 C-10.1875 5 -10.1875 5 -10 2 C-7.80317107 -2.25635606 -3.94974253 -1.18861411 0 0 Z " fill="#C3E4FE" transform="translate(317,39)"/>
<path d="M0 0 C9.27388712 3.18532751 15.56426837 8.1944945 20.5234375 16.57421875 C22.52138526 21.20966898 23.52464867 25.88516169 24.5625 30.8125 C24.87477539 32.2037207 24.87477539 32.2037207 25.19335938 33.62304688 C28.28670341 48.00370267 29.33610529 62.22875136 29.26074219 76.90136719 C29.25003566 79.36678816 29.26070907 81.831476 29.2734375 84.296875 C29.28742152 99.32391373 28.05807857 114.24532014 25.125 129 C24.86456909 130.31713989 24.86456909 130.31713989 24.59887695 131.66088867 C22.22777839 143.21209231 19.49977334 152.26201727 9.84075928 159.65200806 C-0.76084784 166.01652476 -12.39525053 164.7534525 -24.359375 164.5859375 C-26.71875931 164.57473081 -29.0781577 164.56619759 -31.43756104 164.56021118 C-37.61262344 164.53742925 -43.78682346 164.47859728 -49.96154785 164.4119873 C-56.27632994 164.35033501 -62.59125295 164.32314727 -68.90625 164.29296875 C-81.27120982 164.22884408 -93.63553287 164.12659374 -106 164 C-106 169.94 -106 175.88 -106 182 C-109.3 182 -112.6 182 -116 182 C-116.08694042 177.89596637 -116.14037149 173.79216871 -116.1875 169.6875 C-116.21263672 168.52025391 -116.23777344 167.35300781 -116.26367188 166.15039062 C-116.27817383 164.47299805 -116.27817383 164.47299805 -116.29296875 162.76171875 C-116.3086792 161.73006592 -116.32438965 160.69841309 -116.34057617 159.63549805 C-115.93949736 156.53180933 -115.43167414 155.87859988 -113 154 C-110.93808556 153.62641239 -110.93808556 153.62641239 -108.52377319 153.62818909 C-107.60709869 153.62143158 -106.69042419 153.61467407 -105.74597168 153.60771179 C-104.74231567 153.61543106 -103.73865967 153.62315033 -102.70458984 153.63110352 C-101.64571564 153.62733704 -100.58684143 153.62357056 -99.49588013 153.61968994 C-97.19271099 153.61324656 -94.88951527 153.61359767 -92.58634567 153.61987495 C-88.93731642 153.62896509 -85.28880329 153.61878295 -81.63980103 153.60325623 C-71.2636194 153.56310899 -60.88747681 153.56194928 -50.51123047 153.56420898 C-44.16640303 153.56426017 -37.82185202 153.54504307 -31.47710037 153.51487541 C-27.88920356 153.50406672 -24.30183839 153.51617452 -20.71395874 153.52870178 C-18.49989299 153.519793 -16.28583153 153.5097171 -14.07177734 153.49829102 C-13.08026672 153.50803452 -12.0887561 153.51777802 -11.06719971 153.52781677 C-3.87526524 153.45403783 2.64234015 152.12742032 8.05078125 147.08984375 C12.98208387 138.67762163 14.45483006 129.50279513 16 120 C16.17789063 118.98099609 16.17789063 118.98099609 16.359375 117.94140625 C20.90431835 91.05049146 19.45644026 60.18840126 14.125 33.5625 C13.97579102 32.81097656 13.82658203 32.05945313 13.67285156 31.28515625 C12.06123332 24.00815609 9.59962649 17.15892179 3.13671875 12.953125 C-0.29885662 11.42061972 -3.82991865 10.98037245 -7.546875 10.5546875 C-10.32578859 9.92633443 -11.36378435 9.31384032 -13 7 C-12.8125 3.875 -12.8125 3.875 -12 1 C-8.18207918 -0.90896041 -4.1514305 -0.57089098 0 0 Z " fill="#F8E4AB" transform="translate(451,174)"/>
<path d="M0 0 C5.2216357 3.00378631 9.83744292 7.76232875 11.75 13.5 C12.38106462 21.06243008 12.77223759 28.37871319 7.75 34.5 C1.1145939 40.58801848 -4.07569118 41.87270321 -13.01953125 41.7734375 C-19.87766324 41.19294265 -23.67288511 37.4746206 -27.98828125 32.37890625 C-31.77461841 26.74042893 -31.98138283 21.09170348 -31.25 14.5 C-29.48376312 8.32345906 -25.57662991 3.97725944 -20.25 0.5 C-13.90079426 -2.5293596 -6.50265652 -2.86471808 0 0 Z " fill="#060503" transform="translate(309.25,407.5)"/>
<path d="M0 0 C5.92041078 2.59726833 9.72832648 7.18158885 12.9765625 12.64453125 C14.76772556 20.34653239 13.87761492 26.29747945 10.01953125 33.203125 C6.82004679 38.00675869 2.15083225 40.87443694 -3.3984375 42.33203125 C-10.00196354 43.24013946 -15.13188716 42.85440094 -20.609375 38.8984375 C-25.44783823 34.66214109 -29.08332164 30.87483382 -29.671875 24.2578125 C-30.01275904 12.13020728 -30.01275904 12.13020728 -26.05859375 7.01953125 C-18.49792748 -0.66566364 -10.63289665 -2.96127903 0 0 Z " fill="#040506" transform="translate(220.3984375,63.66796875)"/>
<path d="M0 0 C3.3 0 6.6 0 10 0 C10.07405325 7.20822896 10.12855664 14.41623741 10.16479492 21.62475586 C10.17989881 24.07792008 10.20038321 26.53105724 10.22631836 28.98413086 C10.26263057 32.50641555 10.27971036 36.02834381 10.29296875 39.55078125 C10.30845261 40.65086014 10.32393646 41.75093903 10.33988953 42.88435364 C10.34022942 44.41560127 10.34022942 44.41560127 10.34057617 45.9777832 C10.34723801 46.87713089 10.35389984 47.77647858 10.36076355 48.70307922 C10 51 10 51 8.63887024 52.8256073 C7 54 7 54 4.4375 53.8125 C2 53 2 53 0 51 C-0.24050903 48.82333374 -0.24050903 48.82333374 -0.22705078 46.09130859 C-0.22689972 45.07040131 -0.22674866 44.04949402 -0.22659302 42.99765015 C-0.21627045 41.89240997 -0.20594788 40.7871698 -0.1953125 39.6484375 C-0.1924826 38.5192691 -0.18965271 37.39010071 -0.18673706 36.22671509 C-0.17551462 32.60937029 -0.15040622 28.99227034 -0.125 25.375 C-0.11497287 22.9270869 -0.10584656 20.47916993 -0.09765625 18.03125 C-0.07556853 12.02073855 -0.04102454 6.01041083 0 0 Z " fill="#F7E3AD" transform="translate(335,366)"/>
<path d="M0 0 C3.67352987 0.0314874 5.02497629 0.17654817 8.25 2.125 C10.86719173 4.98755346 12.17437372 6.6570722 12.625 10.5625 C12.14689995 15.34350047 11.06844394 17.42761782 8.25 21.3125 C4.40736261 23.70116649 0.69477724 23.85834984 -3.75 23.3125 C-6.72116227 21.52448512 -9.17553953 19.46142094 -10.75 16.3125 C-11.16948626 12.9266466 -11.24414522 9.69181569 -10.75 6.3125 C-8.3125 3.25 -8.3125 3.25 -5.75 1.3125 C-4.10962605 -0.32787395 -2.25523159 0.06338669 0 0 Z " fill="#FAFAFA" transform="translate(211.75,72.6875)"/>
<path d="M0 0 C4.99451703 3.88462436 4.99451703 3.88462436 5.53515625 7.83203125 C5.71635961 12.58271069 5.43935892 15.9911127 2.25 19.75 C-1.95937574 22.27562544 -5.9548823 22.57960514 -10.75 21.75 C-14.32236674 19.8229972 -16.44560702 17.66317895 -17.75 13.75 C-18.15109454 9.49839783 -18.01378256 7.2493027 -16 3.4375 C-11.62100774 -1.79296297 -6.41336537 -2.91516608 0 0 Z " fill="#FBFBFB" transform="translate(305.75,417.25)"/>
<path d="M0 0 C3 0.25 3 0.25 5 2.25 C5.265625 5.40234375 5.265625 5.40234375 5.25 9.1875 C5.25515625 10.43402344 5.2603125 11.68054688 5.265625 12.96484375 C5 16.25 5 16.25 3 19.25 C0 19.5625 0 19.5625 -3 19.25 C-5.49210439 16.75789561 -5.26015661 15.24639212 -5.2734375 11.83984375 C-5.26570313 11.15019531 -5.25796875 10.46054687 -5.25 9.75 C-5.25773437 9.06035156 -5.26546875 8.37070312 -5.2734375 7.66015625 C-5.24527746 0.43710646 -5.24527746 0.43710646 0 0 Z " fill="#F8E4AB" transform="translate(340,429.75)"/>
<path d="M0 0 C2.4375 0.75 2.4375 0.75 4.4375 2.75 C4.73828125 5.68359375 4.73828125 5.68359375 4.75 9.1875 C4.76675781 10.34121094 4.78351563 11.49492187 4.80078125 12.68359375 C4.4375 15.75 4.4375 15.75 3.078125 17.640625 C0.76289021 19.20616471 -0.83131934 19.10015137 -3.5625 18.75 C-6.04538836 16.26711164 -5.84833167 14.73813844 -5.88476562 11.33984375 C-5.88154297 10.65019531 -5.87832031 9.96054687 -5.875 9.25 C-5.89111328 8.56035156 -5.90722656 7.87070312 -5.92382812 7.16015625 C-5.92578125 5.15625 -5.92578125 5.15625 -5.5625 1.75 C-2.5625 -0.25 -2.5625 -0.25 0 0 Z " fill="#C1E3FD" transform="translate(123.5625,319.25)"/>
<path d="M0 0 C2.31 0.66 4.62 1.32 7 2 C7.33 3.98 7.66 5.96 8 8 C3.69230769 11.07692308 3.69230769 11.07692308 0.1875 10.6875 C-0.534375 10.460625 -1.25625 10.23375 -2 10 C-2.6875 6.6875 -2.6875 6.6875 -3 3 C-1.5625 1.0625 -1.5625 1.0625 0 0 Z " fill="#030607" transform="translate(6,258)"/>
<path d="M0 0 C2 3 2 3 1.75 5.5625 C1 8 1 8 -1 10 C-6.45454545 9.54545455 -6.45454545 9.54545455 -9 7 C-8.875 4 -8.875 4 -8 1 C-5.23162759 -1.1956057 -3.22696316 -1.3983507 0 0 Z " fill="#040708" transform="translate(365,98)"/>
<path d="M0 0 C0.66 1.98 1.32 3.96 2 6 C0.3125 8.0625 0.3125 8.0625 -2 10 C-5.39154295 9.83849795 -6.58296757 9.41703243 -9 7 C-9.3633156 4.16613833 -9.3568671 2.59477849 -7.875 0.125 C-5.07848948 -1.55290631 -3.06309468 -0.74875648 0 0 Z " fill="#080701" transform="translate(414,357)"/>
</svg>
